# xmcd CD database file
#
# Track frame offsets:
#	150
#	22650
#	44400
#	63450
#	79275
#	97200
#	117225
#	134325
#	157875
#	178875
#	196950
#
# Disc length: 2859 seconds
#
# Revision: 1
# Processed by: cddbd v1.5.1PL2 Copyright (c) Steve Scherf et al.
# Submitted via: freeDBTagger 0.8.2.1
#
DISCID=930b290b
DTITLE=Barbra Streisand - Guilty Pleasures
DYEAR=2005
DGENRE=misc
TTITLE0=Come Tomorrow (Duet With Barry Gibb)
TTITLE1=Stranger In A Strange Land
TTITLE2=Hideaway
TTITLE3=It's Up To You
TTITLE4=Night Of My Life
TTITLE5=Above The Law (Duet With Barry Gibb)
TTITLE6=Without Your Love
TTITLE7=All The Children
TTITLE8=Golden Dawn
TTITLE9=(Our Love) Don't Throw It All Away
TTITLE10=Letting Go
EXTD=
EXTT0=
EXTT1=
EXTT2=
EXTT3=
EXTT4=
EXTT5=
EXTT6=
EXTT7=
EXTT8=
EXTT9=
EXTT10=
PLAYORDER=
